<svg xmlns="http://www.w3.org/2000/svg" viewBox="0 0 1200 750" role="img" aria-labelledby="title desc">
  <title id="title">Ecology</title>
  <desc id="desc">Stylized coastal ecology with trees, marsh, birds, and water habitat.</desc>
  <defs>
    <linearGradient id="sky" x1="0" x2="0" y1="0" y2="1">
      <stop offset="0%" stop-color="#cce8ff"/>
      <stop offset="100%" stop-color="#eef7ff"/>
    </linearGradient>
    <linearGradient id="marsh" x1="0" x2="0" y1="0" y2="1">
      <stop offset="0%" stop-color="#8db38a"/>
      <stop offset="100%" stop-color="#6a8e67"/>
    </linearGradient>
  </defs>

  <rect width="1200" height="750" fill="url(#sky)"/>
  <rect y="470" width="1200" height="280" fill="url(#marsh)"/>
  <path d="M0 520 C180 500 330 560 510 535 C700 510 860 585 1200 540 L1200 750 L0 750 Z" fill="#4f87a7" opacity="0.88"/>

  <g fill="#3f6b3c">
    <rect x="160" y="300" width="20" height="190"/>
    <circle cx="170" cy="270" r="58"/>
    <circle cx="130" cy="295" r="42"/>
    <circle cx="208" cy="300" r="40"/>

    <rect x="310" y="330" width="18" height="160"/>
    <circle cx="318" cy="310" r="44"/>
    <circle cx="286" cy="326" r="32"/>
    <circle cx="348" cy="327" r="30"/>

    <rect x="940" y="315" width="20" height="175"/>
    <circle cx="952" cy="288" r="52"/>
    <circle cx="914" cy="309" r="38"/>
    <circle cx="987" cy="307" r="34"/>
  </g>

  <g fill="#22313f">
    <path d="M540 220 l30 -12 l-14 23 z"/>
    <path d="M585 245 l34 -14 l-16 25 z"/>
    <path d="M680 210 l28 -11 l-12 21 z"/>
  </g>

  <ellipse cx="760" cy="585" rx="72" ry="30" fill="#c7d6c9" opacity="0.45"/>
  <ellipse cx="835" cy="610" rx="56" ry="24" fill="#c7d6c9" opacity="0.4"/>
</svg>
